<?xml version="1.0" standalone="no"?><!DOCTYPE svg PUBLIC "-//W3C//DTD SVG 1.1//EN" "http://www.w3.org/Graphics/SVG/1.1/DTD/svg11.dtd"><svg t="1575620284049" class="icon" viewBox="0 0 1024 1024" version="1.1" xmlns="http://www.w3.org/2000/svg" p-id="7401" xmlns:xlink="http://www.w3.org/1999/xlink" width="200" height="200"><defs><style type="text/css"></style></defs><path d="M700.416 278.528c-8.192-8.192-20.48-8.192-28.672 0l-159.744 159.744L352.256 278.528c-8.192-8.192-20.48-8.192-28.672 0s-8.192 20.48 0 28.672l139.264 139.264L335.872 446.464c-12.288 0-20.48 8.192-20.48 20.48s8.192 20.48 20.48 20.48L491.52 487.424l0 106.496L335.872 593.92c-12.288 0-20.48 8.192-20.48 20.48s8.192 20.48 20.48 20.48L491.52 634.88l0 192.512c0 12.288 8.192 20.48 20.48 20.48s20.48-8.192 20.48-20.48l0-192.512 155.648 0c12.288 0 20.48-8.192 20.48-20.48s-8.192-20.48-20.48-20.48L532.48 593.92l0-106.496 155.648 0c12.288 0 20.48-8.192 20.48-20.48s-8.192-20.48-20.48-20.48l-126.976 0 139.264-139.264C708.608 299.008 708.608 286.72 700.416 278.528z" p-id="7402"></path><path d="M512 86.016C278.528 86.016 86.016 278.528 86.016 512s188.416 425.984 425.984 425.984c233.472 0 425.984-188.416 425.984-425.984S745.472 86.016 512 86.016zM512 897.024c-212.992 0-385.024-172.032-385.024-385.024s172.032-385.024 385.024-385.024c212.992 0 385.024 172.032 385.024 385.024S724.992 897.024 512 897.024z" p-id="7403"></path></svg>