<?xml version="1.0" standalone="no"?><!DOCTYPE svg PUBLIC "-//W3C//DTD SVG 1.1//EN" "http://www.w3.org/Graphics/SVG/1.1/DTD/svg11.dtd"><svg t="1575620359460" class="icon" viewBox="0 0 1024 1024" version="1.1" xmlns="http://www.w3.org/2000/svg" p-id="9588" xmlns:xlink="http://www.w3.org/1999/xlink" width="200" height="200"><defs><style type="text/css"></style></defs><path d="M520.634182 946.362182c-242.734545 0-440.203636-197.469091-440.203637-440.203637S277.899636 65.954909 520.634182 65.954909s440.226909 197.469091 440.226909 440.203636-197.492364 440.203636-440.226909 440.203637z m0-840.424727c-220.672 0-400.197818 179.525818-400.197818 400.22109 0 220.672 179.525818 400.221091 400.197818 400.221091 220.695273 0 400.221091-179.549091 400.221091-400.221091 0-220.695273-179.525818-400.221091-400.221091-400.22109z" p-id="9589"></path><path d="M503.668364 274.897455h39.982545v231.237818h-39.982545z" p-id="9590"></path><path d="M503.621818 506.205091l28.253091-28.276364 129.722182 129.722182-28.276364 28.276364z" p-id="9591"></path></svg>